<?xml version="1.0" encoding="UTF-8"?>
<svg width="48" height="48" version="1.2" viewBox="0 0 127 127" xmlns="http://www.w3.org/2000/svg">
 <title>FreeCAD SVG Export</title>
 <desc>Drawing page: Page exported from FreeCAD document: Sin_nombre</desc>
 <path d="m38.59 76.48c-2.005-0.9053-4.009-1.811-6.014-2.716m17.75-33.37c-0.2748-0.1261-0.5497-0.2522-0.8245-0.3783m7.614 3.482-1.746-0.8148m47.53-37.69c6.498 4.626 9.716 12.85 9.506 20.66m-4.365 15.62c2.696-4.709 4.272-10.08 4.365-15.52m-9.506-20.76c-2.081-1.487-4.414-2.633-6.887-3.298m-31.05 15.33c5.762-10.78 18.7-18.61 31.04-15.31m-12.5 73.99c-0.3233-0.5497-0.6467-1.099-0.97-1.649m6.596 10.86c-0.1681-0.2716-0.3363-0.5432-0.5044-0.8148m0.3104 1.106c-0.236-0.2069-0.4721-0.4139-0.7081-0.6208m-40.71-48.85c3.557 5.757 7.113 11.51 10.67 17.27m-10.67-17.27c5.077 4.493 10.15 8.987 15.23 13.48m28.32 20.08-4.656-2.91m25.12 15.81c-5.433-3.427-10.87-6.853-16.3-10.28m-6.208 1.843c-1.811-0.679-3.621-1.358-5.432-2.037m27.94 10.48c-5.98-2.263-11.96-4.527-17.94-6.79m-52.38-26.19c2.684 1.681 5.367 3.363 8.051 5.044m-23.47-14.74c3.783 2.393 7.567 4.785 11.35 7.178m9.603 0.679c2.263 0.8407 4.527 1.681 6.79 2.522m-10.09-3.783c0.3233 0.1229 0.6467 0.2457 0.97 0.3686m-18.62-6.965c4.3 1.617 8.6 3.233 12.9 4.85m13.87 7.275c0.7113-1.293 1.423-2.587 2.134-3.88m-2.425 4.462 0.1578-0.2855 0.04591-0.08307m34.23 14.72c0.1099-0.194 0.2199-0.388 0.3298-0.582m-4.21 7.372c0.3072-0.5497 0.6143-1.099 0.9215-1.649m6.644-14.65c-4.493-0.2231-8.987-0.4462-13.48-0.6693m13.48 0.6693c-4.17 1.714-8.34 3.427-12.51 5.141m9.021 15.62c-1.714-1.099-3.427-2.199-5.141-3.298m25.12 15.91c-5.303-3.363-10.61-6.727-15.91-10.09m-6.693 1.552c-1.746-0.6467-3.492-1.293-5.238-1.94m27.84 10.48c-5.98-2.263-11.96-4.527-17.94-6.79m-10.09 0.291c-0.3233-0.5497-0.6467-1.099-0.97-1.649m6.596 10.77c-0.2845-0.4527-0.5691-0.9053-0.8536-1.358m0.5626 1.649c-0.5497-0.485-1.099-0.97-1.649-1.455m-39.67-47.92c3.557 5.757 7.113 11.51 10.67 17.27m-10.67-17.27c5.077 4.493 10.15 8.987 15.23 13.48m-21.53 0c2.651 1.681 5.303 3.363 7.954 5.044m-23.38-14.74c3.783 2.393 7.567 4.785 11.35 7.178m9.603 0.679c2.263 0.8407 4.527 1.681 6.79 2.522m-10.67-3.977c0.5173 0.1972 1.035 0.3945 1.552 0.5917m-18.62-6.994c4.17 1.584 8.34 3.169 12.51 4.753m14.26 7.372c0.7437-1.293 1.487-2.587 2.231-3.88m-2.522 4.462 0.1578-0.2855 0.04591-0.08307m34.23 14.72c0.1164-0.2069 0.2328-0.4139 0.3492-0.6208m-4.132 7.314c0.2975-0.5173 0.5949-1.035 0.8924-1.552m6.577-14.65c-4.493-0.2231-8.987-0.4462-13.48-0.6693m13.48 0.6693c-4.17 1.714-8.34 3.427-12.51 5.141m-35.02-18.24c3.557 5.757 7.113 11.51 10.67 17.27m-10.67-17.27c5.077 4.493 10.15 8.987 15.23 13.48m20.76 26.48c-0.3233-0.5497-0.6467-1.099-0.97-1.649m4.85 9.797c-0.485-0.4203-0.97-0.8407-1.455-1.261m4.85-13.48c-1.487-0.9377-2.975-1.875-4.462-2.813m25.22 15.91c-5.53-3.493-11.06-6.987-16.59-10.48m-7.566 1.358c-1.229-0.4527-2.457-0.9053-3.686-1.358m27.84 10.48-19.3-7.275m-49.37-24.64 6.402 4.074m-23.47-14.84c4.237 2.684 8.473 5.367 12.71 8.051m8.245-0.1746c2.263 0.8407 4.527 1.681 6.79 2.522m-9.603-3.599 0.5432 0.2037m-18.68-7.003c4.527 1.714 9.053 3.427 13.58 5.141m13.19 6.984c0.7437-1.293 1.487-2.587 2.231-3.88m-2.522 4.462 0.1578-0.2855 0.04591-0.08307m34.23 14.72c0.1261-0.2231 0.2522-0.4462 0.3783-0.6693m-4.161 7.362c0.291-0.5173 0.582-1.035 0.873-1.552m6.596-14.65c-4.493-0.2231-8.987-0.4462-13.48-0.6693m13.48 0.6693c-4.17 1.714-8.34 3.427-12.51 5.141m-35.02-18.24c3.557 5.757 7.113 11.51 10.67 17.27m-10.67-17.27c5.077 4.493 10.15 8.987 15.23 13.48m26.09 18.62c-0.8083-0.5173-1.617-1.035-2.425-1.552m25.12 15.91c-6.143-3.88-12.29-7.76-18.43-11.64m18.43 11.64c-7.437-2.813-14.87-5.626-22.31-8.439m-3.201 6.014c-0.582-0.9377-1.164-1.875-1.746-2.813m5.529 9.021c-0.4203-0.7113-0.8407-1.423-1.261-2.134m-4.753-3.201c-0.3557-0.3233-0.7113-0.6467-1.067-0.97m7.081 6.305-2.037-1.746m-41.13-31.62c0.5173 0.3233 1.035 0.6467 1.552 0.97m-22.41-14.06c5.303 3.363 10.61 6.727 15.91 10.09m4.947-2.231c2.296 0.873 4.591 1.746 6.887 2.619m-27.74-10.48 16.2 6.111m64.02-11.64c-0.152-0.3169-0.3039-0.6337-0.4559-0.9506m-0.6111 22.68 0.02619-0.07275m-4.003 8.706c0.9411-1.686 1.835-3.402 2.57-5.19m-8.1 12.85c1.254-1.448 2.407-2.981 3.492-4.559m-17.07 13.68c4.129-0.7597 7.672-3.269 10.74-6.014m19.43-37.32-0.02328-0.1649m-0.2677 11.19c0.3563-2.083 0.5621-4.192 0.5917-6.305m-3.211 15.81c0.7738-2.059 1.451-4.159 1.94-6.305m-6.014 14.84c1.121-1.942 2.135-3.948 3.007-6.014m-8.439 13.77c1.438-1.724 2.822-3.503 3.977-5.432m-24.54 16.88c7.284 0.345 13.71-4.17 18.62-9.099m-22.31-66.08 1.164 0.291m-11.45 2.91c1.929-1.308 4.027-2.402 6.282-3.025m-13.17 9.427c1.726-2.018 3.617-3.906 5.723-5.529m-11.06 13.19c1.414-2.543 3.044-4.973 4.947-7.178m-8.924 16c1.04-2.936 2.311-5.791 3.783-8.536m-4.753 29.29c-2.439-6.521-1.235-13.73 0.8148-20.18m21.59-31.14c2.963-0.7307 6.194-0.6265 9.002 0.6383m-34.71 54.94c-6.245-14.58-0.7216-31.48 8.787-43.29 3.987-5.09 9.129-9.449 15.25-11.71m10.69 66.64c16.5-7.923 27.99-25.51 28.2-43.87-0.3262-1.518-0.973-3-2.041-4.147m-26.93 53.16c16.5-5.428 27.04-21.14 32.54-36.85 2.139-6.996 2.392-16.12-3.996-21.06m-42.04 3.395c0.9821-0.8734 2.042-1.652 3.104-2.425m-9.991 9.894c0.947-1.183 1.94-2.328 2.91-3.492m-8.245 11.45c0.7481-1.361 1.58-2.675 2.466-3.951m-6.54 12.39c0.5182-1.416 1.151-2.786 1.746-4.171m-3.589 10.57c0.1091-0.4856 0.2208-0.9705 0.3346-1.455m21.5-37.34c1.333-0.7432 2.731-1.369 4.171-1.872m-12.71 8.371c1.23-1.133 2.457-2.275 3.783-3.298m-9.991 10.18c0.9473-1.182 1.892-2.369 2.91-3.492m-3.492 4.268 0.1164-0.1649m-4.481 6.761c0.6451-1.14 1.363-2.239 2.134-3.298m-9.118 31.23c-0.8126-3.253-0.6256-6.667-0.04835-9.942m22.94 10.52c7.261-17.67 16-34.9 27.73-50.05m-32.39 48.98c7.425-18.42 16.61-36.3 28.92-51.96 1.346-1.295 4.411-2.207 5.302 0.09386m-60.7 60.89c0.9377-1.681 1.875-3.363 2.813-5.044m39.67 29c0.9377-1.681 1.875-3.363 2.813-5.044m-33.85-14.55c1.681 2.716 3.363 5.432 5.044 8.148m-5.044-8.148c2.457 2.166 4.915 4.333 7.372 6.499m18.24 12.12c-4.04-2.554-8.08-5.109-12.12-7.663m12.12 7.663c-3.687-1.39-7.373-2.781-11.06-4.171m-23.28-13 8.73 5.529m-8.73-5.529c4.17 1.584 8.34 3.169 12.51 4.753m13.1 13.87c-0.5173-0.8083-1.035-1.617-1.552-2.425m1.552 2.425c-0.6467-0.582-1.293-1.164-1.94-1.746m-19.21-5.626c0.9377-1.681 1.875-3.363 2.813-5.044m14.26 14.65c0.9377-1.681 1.875-3.363 2.813-5.044m-14.74 1.261c0.4203-0.7113 0.8407-1.423 1.261-2.134m3.007 4.462c0.4203-0.7113 0.8407-1.423 1.261-2.134m7.178-7.76c0.1778-0.3169 0.3557-0.6337 0.5335-0.9506m3.056-1.474c-2.166-0.1067-4.333-0.2134-6.499-0.3201m6.499 0.3201c-2.005 0.8407-4.009 1.681-6.014 2.522m-9.312-32.98c0.249-0.4527 0.4979-0.9053 0.7469-1.358m-6.858 12.22c1.002-1.778 2.005-3.557 3.007-5.335m34.34 26.38c1.972-3.493 3.945-6.987 5.917-10.48m-31.62-25.22c0.7437-1.326 1.487-2.651 2.231-3.977m-2.813 4.947c0.1423-0.2554 0.2845-0.5109 0.4268-0.7663m34.2 14.73c0.1326-0.236 0.2651-0.4721 0.3977-0.7081m3.288-8.798c-4.493-0.2231-8.987-0.4462-13.48-0.6693m13.48 0.6693c-4.17 1.714-8.34 3.427-12.51 5.141m0.1055-55.58c0.1132-0.2005 0.2263-0.4009 0.3395-0.6014m-2.87 4.966 0.04753-0.08536m35.07 13.38 0.05432-0.097m-4.516 8.051c0.4527-0.8083 0.9053-1.617 1.358-2.425m0.097 5.141c-0.8407-0.5497-1.681-1.099-2.522-1.649m25.12 15.91c-6.047-3.817-12.09-7.633-18.14-11.45m-5.626 2.522c-1.39-0.5173-2.781-1.035-4.171-1.552m27.94 10.48c-6.403-2.425-12.81-4.85-19.21-7.275m-44.81-39.19c3.557 5.757 7.113 11.51 10.67 17.27m-10.67-17.27c5.077 4.493 10.15 8.987 15.23 13.48m-20.08 0.97c2.166 1.358 4.333 2.716 6.499 4.074m-23.38-14.74c4.237 2.684 8.473 5.367 12.71 8.051m8.245-0.194c2.263 0.8407 4.527 1.681 6.79 2.522m-27.74-10.38c5.077 1.908 10.15 3.815 15.23 5.723m42.39 30.46c-0.3233-0.5497-0.6467-1.099-0.97-1.649m-29.88-22.41c0.7113-1.261 1.423-2.522 2.134-3.783m-2.522 4.365 0.1578-0.2855 0.04591-0.08307m34.33 14.72 0.3104-0.5432m-4.19 7.333c0.3136-0.5497 0.6273-1.099 0.9409-1.649m6.625-14.65c-4.493-0.2231-8.987-0.4462-13.48-0.6693m13.48 0.6693c-4.17 1.714-8.34 3.427-12.51 5.141m-14.16-24.44c0.1649-0.291 0.3298-0.582 0.4947-0.873m26.76 16.2c0.1649-0.291 0.3298-0.582 0.4947-0.873m-34.06-21.82c0.8083-1.455 1.617-2.91 2.425-4.365m40.64 28.71c0.8083-1.455 1.617-2.91 2.425-4.365m-11.16-14.74c-5.759-4.068-12.07-7.427-18.82-9.506m23.18 13.1c-1.388-1.276-2.859-2.456-4.365-3.589m-0.097 0.097 0.06499-0.1164m-33.34 24.66c0.5252-0.8708 0.5078-2.147-0.3007-2.852m0.3007 2.852c-0.731 1.287-2.325 2.048-3.783 1.707m-1.067-0.7372c0.3233 0.236 0.6467 0.4721 0.97 0.7081m27.16 12.58c-1.889 0.9764-2.339 3.253-2.735 5.141m0.1164 0.291-0.04559-0.194m-31.19-19.79 0.07566-0.1358m-0.07566 0.1358-0.07663 0.1358m25.3 13.06c-0.8738-0.7501-1.772-1.473-2.716-2.134m8.148 9.603c-0.1014-1.946-1.456-3.495-2.716-4.85m2.425 5.82 0.2425-0.9312m-0.4365 1.319 0.1979-0.2594 0.08337-0.1092m-24.24-18.74c-1.489-0.4009-3.013-0.712-4.559-0.7566m8.148 1.921c-1.174-0.4512-2.365-0.8682-3.589-1.164m16.39 8.187c-2.63-1.915-5.435-3.585-8.342-5.044m-0.097-9.254c-1.244-0.4699-2.501-0.9074-3.783-1.261m16.39 8.148c-2.583-1.855-5.304-3.521-8.148-4.947m-16.3-2.813-0.08342 0.1358m8.134-0.5238c-0.9574-0.2606-1.928-0.4783-2.91-0.6208m27.06 19.34 0.2425-0.9312m-6.45-8.478-0.7757-0.5824-0.7763-0.5816m8.051 9.603c-0.1468-2.164-1.742-3.806-3.104-5.335m-7.275-3.298c-2.888-0.3404-3.663 4.294-1.329 5.46m2.299 0.389c-0.7589 0.3269-1.678 0.1614-2.328-0.3492m6.208 12.64c-1.889 0.9764-2.339 3.253-2.735 5.141m0.0194 0.291-0.04559-0.194m-20.61-19.5c0.5252-0.8708 0.5078-2.147-0.3007-2.852m0.3007 2.852c-0.731 1.287-2.325 2.048-3.783 1.707m-1.067-0.7372c0.3233 0.236 0.6467 0.4721 0.97 0.7081m-6.596-1.969 0.07566-0.1358m-0.07566 0.1358-0.07663 0.1358m25.3 13.06c-0.877-0.7462-1.772-1.473-2.716-2.134m8.051 9.603c-0.1015-1.926-1.448-3.443-2.619-4.85m2.425 5.723 0.2425-0.9312m-0.5335 1.319 0.1979-0.2594 0.08337-0.1092m-24.24-18.66c-1.487-0.4084-3.012-0.7234-4.559-0.7566m8.245 1.94c-1.209-0.4746-2.445-0.8787-3.686-1.261m16.39 8.245c-2.593-1.892-5.377-3.511-8.245-4.947m-0.388-9.409c-1.174-0.4512-2.365-0.8682-3.589-1.164m16.39 8.109c-2.63-1.915-5.435-3.585-8.342-5.044m-16-2.677-0.05917 0.097m8.013-0.582c-0.9869-0.2762-1.991-0.4926-3.007-0.6305m27.26 19.35 0.2425-0.9312m-6.45-8.381-0.8238-0.6314-0.8252-0.6296m8.051 9.7c-0.1468-2.164-1.742-3.806-3.104-5.335m-7.275-3.298c-2.888-0.3404-3.663 4.294-1.329 5.46m2.299 0.3599c-0.7589 0.3269-1.678 0.1614-2.328-0.3492m-17.17-1.591c0.5252-0.8708 0.5078-2.147-0.3007-2.852m0.3007 2.852c-0.731 1.287-2.325 2.048-3.783 1.707m-1.067-0.7372c0.3233 0.236 0.6467 0.4721 0.97 0.7081m27.26 12.58c-1.889 0.9764-2.339 3.253-2.735 5.141m0.0194 0.291-0.04559-0.194m-31.09-19.79 0.07566-0.1358m-0.07566 0.1358-0.07663 0.1358m25.39 13.06c-0.9053-0.7833-1.844-1.528-2.813-2.231m8.148 9.603c-0.0985-1.927-1.443-3.447-2.619-4.85m2.328 5.82 0.2425-0.9312m-0.5335 1.319 0.1979-0.2594 0.08337-0.1092m-24.24-18.74c-1.518-0.4151-3.077-0.7294-4.656-0.7566m8.73 2.115c-1.298-0.5294-2.638-0.9471-3.977-1.358m16.3 8.245c-2.524-1.814-5.195-3.42-7.954-4.85m-0.582-9.506c-1.209-0.4742-2.442-0.8876-3.686-1.261m16.39 8.148c-2.593-1.892-5.377-3.511-8.245-4.947m-16.1-2.716-0.03492 0.05917m7.989-0.5345c-1.021-0.272-2.053-0.5149-3.104-0.6402m27.35 19.35 0.2425-0.9312m-6.354-8.381-0.8229-0.6326-0.8261-0.6284m8.051 9.603c-0.1468-2.164-1.742-3.806-3.104-5.335m-7.275-3.201c-2.888-0.3404-3.663 4.294-1.329 5.46m2.202 0.3599c-0.7589 0.3269-1.678 0.1614-2.328-0.3492m-11.35 24.41c-8.994-6.275-19.43-12.33-30.82-11.2l-0.6568 0.5217-0.6208 0.5642m42.39 23.98 0.3104-1.261m-0.0194 0c-1.077-5.796-6.434-9.177-10.67-12.61m-12.03 11.06c-3.918-2.14-8.11-5.976-12.9-4.103m17.07 9.632 0.1261-0.4947m-0.0291 0.01c-0.4779-2.302-2.595-3.64-4.268-5.044m1.455 10.09c-0.4779-2.302-2.595-3.64-4.268-5.044m4.171 5.529 0.1261-0.4947m-4.394 0.7857c1.376 0.2729 3.097 0.9236 4.268-0.2619m-8.342-1.29c1.316 0.6168 2.653 1.217 4.074 1.552m-8.73-4.365 0.6301 0.437 0.6309 0.436m-5.529-5.917c0.4779 2.302 2.595 3.64 4.268 5.044m-4.074-5.529-0.1261 0.4947m4.394-0.7857c-1.376-0.2729-3.097-0.9236-4.268 0.2619m12.9 4.103c-2.648-1.857-5.536-3.406-8.633-4.365m5.335 4.947c-0.9773-0.5031-2.001-1.507-3.201-1.001m4.171 2.359 0.03104-0.1261m0.06596 0.0291-0.5186-0.6431-0.5484-0.6179m-0.194 3.395-0.5186-0.6431-0.5484-0.6179m1.067 1.358 0.03104-0.1261m-1.098 0.2231c0.3557-0.022 0.7113-0.044 1.067-0.066m-3.201-1.001 1.062 0.5434 1.072 0.5236m-3.201-2.328 0.5186 0.6431 0.5484 0.6179m-1.067-1.358-0.03104 0.1261m1.098-0.2231c-0.3557 0.022-0.7113 0.044-1.067 0.066m3.201 1.001-1.062-0.5434-1.072-0.5236m29.39-0.097c-1.077-5.796-6.434-9.177-10.67-12.61m10.38 13.87 0.3104-1.261m-10.88 1.94c3.429 0.6557 7.725 2.313 10.57-0.6596m-14.94-0.7954c1.394 0.5359 2.806 1.041 4.268 1.358m-5.335-1.746 0.0086 3e-3m-26.78-21.53c0.9195 5.349 5.768 8.574 9.603 11.83m-9.312-13.09c-0.1035 0.4203-0.2069 0.8407-0.3104 1.261m10.98-1.843c-3.429-0.6557-7.725-2.313-10.57 0.6596m32.11 10.01c-6.534-4.712-13.77-8.525-21.53-10.77m8.148 11.54c0.1285 0.4703 0.1856 0.9387 0.1843 1.426m-0.0873-0.0679c-0.3652 0.3012-0.7516 0.5631-1.164 0.7954m7.178 2.309c-0.7254 0.0364-0.7614 0.9857-1.116 1.387m-7.906-5.17-0.1455 0.2619m-0.0485 0.0291-0.1691 0.279-0.0249 0.0411m7.954-0.5141c-1.331-0.9279-2.77-1.76-4.365-2.134m0-0.097-0.9695-0.0434-0.9705-4e-3m8.439 5.092 0.06402-0.2522m-0.937-1.494-0.6273-0.5373-0.6337-0.5297m2.134 2.522-6.79e-4 -0.0456m-3.491-1.506c-1.12-0.1438-1.776 1.408-1.057 2.192m1.445 0.6208-0.4656 0.0718m-11.27-26.45c2.048-0.246 3.331-2.392 3.308-4.32m31.42 15.96-0.7943 0.6581-0.7577 0.6999m0.0388 0c-0.6504 1.123-1.03 3.462 0.7411 3.783m-18.24-14.84c-1.361 2.966 4.504 4.039 4.772 1.083m19.38 6.095c-2.117-3.314-5.221-5.828-8.342-8.148m-18.92-9.506c-3.011-0.5757-6.826-2.086-9.312 0.582m15.62 1.746c-2.05-0.878-4.14-1.684-6.305-2.231m18.92 9.409c-2.619-1.911-5.386-3.614-8.245-5.141m-4.85-5.82c0.5252-0.8708 0.5078-2.147-0.3007-2.852m0.3007 2.852c-0.731 1.287-2.325 2.048-3.783 1.707m-1.067-0.7372c0.3233 0.236 0.6467 0.4721 0.97 0.7081m27.26 12.58c-1.593 0.6515-1.904 2.481-2.493 3.88m-31.36-18.43 0.07566-0.1358m-0.07566 0.1358-0.07663 0.1358m22.87 10.53 0.2619-0.4753m-8.701-13.4c-1.335-0.5186-2.705-0.9392-4.074-1.358m16.49 8.148c-2.524-1.814-5.195-3.42-7.954-4.85m-16.49-2.813-0.01164 0.02037m8.063-0.5054c-1.051-0.2883-2.119-0.5194-3.201-0.6499m27.35 19.27 0.2425-0.9312m-6.354-8.284-0.8734-0.6785-0.8726-0.6795m8.148 9.7c-0.1455-2.141-1.693-3.785-3.007-5.335m-7.372-3.201c-2.888-0.3404-3.663 4.294-1.329 5.46m2.257 0.3599c-0.7589 0.3269-1.678 0.1614-2.328-0.3492m3.728-54.75c0.6308 1.889-1.11 3.604-2.764 4.144m17.8 0.8032c0.6999 1.358-0.3869 3.158-1.882 3.269m12.16 8.565 0.2054-0.9753 0.2505-0.9647m0.0291 0c0.349-0.6983 1.202-1.377 2.018-0.9797m-6.286 2.726c-0.841-0.7188-1.712-1.403-2.619-2.037m8.051 9.603c-0.1121-1.971-1.482-3.534-2.716-4.947m2.522 5.917 0.2425-0.9312m-0.5335 1.319 0.1979-0.2594 0.08337-0.1092m-24.24-18.74c-1.425-0.3901-2.884-0.6968-4.365-0.7469m8.827 2.299c-1.485-0.6117-3.007-1.137-4.559-1.552m16.49 8.148c-2.328-1.717-4.806-3.226-7.372-4.559m19.98 6.111c-0.839-4.381-4.859-6.97-8.051-9.603m7.76 10.57 0.2425-0.9312m-24.4-17.79c-2.604-0.5144-5.884-1.756-8.051 0.5044m24.44 7.644c-4.976-3.569-10.47-6.504-16.39-8.148m18.53 27.84c-1.889 0.9764-2.339 3.253-2.735 5.141m0.1164 0.2522-0.04559-0.194m-20.71-19.46c0.5252-0.8708 0.5078-2.147-0.3007-2.852m0.3007 2.852c-0.731 1.287-2.325 2.048-3.783 1.707m-0.97-0.7372c0.3233 0.236 0.6467 0.4721 0.97 0.7081m-6.693-1.969 0.07566-0.1358m-0.07566 0.1358-0.07663 0.1358m25.2 13.06c-0.846-0.7133-1.746-1.358-2.619-2.037m8.148 9.603c-0.1091-1.972-1.477-3.537-2.716-4.947m2.425 5.82 0.2425-0.9312m-0.5335 1.319 0.1979-0.2594 0.08337-0.1092m-24.21-18.64c-1.46-0.3847-2.948-0.7054-4.462-0.7566m8.313 2.018c-1.241-0.4775-2.498-0.9172-3.783-1.261m16.3 8.148c-2.548-1.828-5.228-3.481-8.051-4.85m0.291-9.215c-1.435-0.5718-2.879-1.125-4.365-1.552m16.3 8.148c-2.352-1.732-4.88-3.212-7.469-4.559m-16.88-3.201-0.1067 0.1746m8.061-0.5626c-0.9589-0.2521-1.928-0.4685-2.91-0.6111m27.16 19.33 0.2425-0.9312m-6.548-8.478-0.775-0.5834-0.777-0.5806m8.148 9.603c-0.1506-2.187-1.718-3.883-3.104-5.432m-7.275-3.201c-2.888-0.3404-3.663 4.294-1.329 5.46m2.299 0.3599c-0.7589 0.3269-1.678 0.1614-2.328-0.3492m16.1-10.51c-0.6676-3.699-4.06-5.895-6.79-8.051m6.596 8.924 0.2037-0.7857m-20.67-15.03c-2.199-0.4035-4.97-1.504-6.79 0.4268m20.66 6.46c-4.192-2.992-8.804-5.462-13.77-6.887m29.68 17.07c-1.111-5.853-6.475-9.324-10.77-12.8m10.48 14.06c0.1067-0.4203 0.2134-0.8407 0.3201-1.261m-8.565 2.522c2.727 0.3852 6.212 1.225 8.245-1.261m-43.46-23.09c0.1238 2.581 1.927 4.614 3.492 6.499m-3.104-7.76c-0.1067 0.4203-0.2134 0.8407-0.3201 1.261m11.09-1.843c-3.497-0.6685-7.846-2.298-10.77 0.6693m32.59 10.19c-6.646-4.721-13.96-8.614-21.82-10.86m35.02 19.3c-1.111-5.853-6.475-9.324-10.77-12.8m10.48 14.06c0.1067-0.4203 0.2134-0.8407 0.3201-1.261m-32.62-23.67c-3.497-0.6685-7.846-2.298-10.77 0.6693m32.59 10.19c-6.646-4.721-13.96-8.614-21.82-10.86" fill="none" stroke="#000000" stroke-linecap="round" stroke-linejoin="bevel" stroke-width=".679"/>
</svg>
