<?xml version="1.0" encoding="UTF-8" standalone="no"?>
<!-- Created with Inkscape (http://www.inkscape.org/) -->

<svg
   width="48"
   height="48"
   viewBox="0 0 12.7 12.7"
   version="1.1"
   id="svg391"
   xml:space="preserve"
   inkscape:version="1.2.2 (b0a8486541, 2022-12-01)"
   sodipodi:docname="CoplandOS.svg"
   inkscape:export-filename="CoplandOS_test.svg"
   inkscape:export-xdpi="96"
   inkscape:export-ydpi="96"
   xmlns:inkscape="http://www.inkscape.org/namespaces/inkscape"
   xmlns:sodipodi="http://sodipodi.sourceforge.net/DTD/sodipodi-0.dtd"
   xmlns="http://www.w3.org/2000/svg"
   xmlns:svg="http://www.w3.org/2000/svg"
   xmlns:rdf="http://www.w3.org/1999/02/22-rdf-syntax-ns#"
   xmlns:cc="http://creativecommons.org/ns#"
   xmlns:dc="http://purl.org/dc/elements/1.1/"><title
     id="title611">Copland OS logo</title><sodipodi:namedview
     id="namedview393"
     pagecolor="#000000"
     bordercolor="#0000ff"
     borderopacity="0.24705882"
     inkscape:showpageshadow="2"
     inkscape:pageopacity="0"
     inkscape:pagecheckerboard="0"
     inkscape:deskcolor="#191919"
     inkscape:document-units="px"
     showgrid="true"
     inkscape:zoom="16"
     inkscape:cx="13.78125"
     inkscape:cy="26.0625"
     inkscape:window-width="1920"
     inkscape:window-height="1020"
     inkscape:window-x="0"
     inkscape:window-y="32"
     inkscape:window-maximized="1"
     inkscape:current-layer="svg391"
     inkscape:lockguides="true"
     showguides="true"><inkscape:grid
       type="xygrid"
       id="grid620"
       empspacing="5"
       spacingx="0.26458333"
       spacingy="0.26458333" /><sodipodi:guide
       position="0,6.35"
       orientation="0,1"
       id="guide1450"
       inkscape:locked="true"
       inkscape:label=""
       inkscape:color="rgb(0,134,229)" /><sodipodi:guide
       position="6.35,12.7"
       orientation="-1,0"
       id="guide1452"
       inkscape:locked="true"
       inkscape:label=""
       inkscape:color="rgb(0,134,229)" /><sodipodi:guide
       position="2.6458333,3.7041667"
       orientation="0,1"
       id="guide1882"
       inkscape:locked="true"
       inkscape:label=""
       inkscape:color="rgb(0,134,229)" /><sodipodi:guide
       position="1.8520833,2.9104168"
       orientation="-1,0"
       id="guide54218"
       inkscape:locked="true"
       inkscape:label=""
       inkscape:color="rgb(0,134,229)" /><sodipodi:guide
       position="10.847917,3.7041667"
       orientation="-1,0"
       id="guide54220"
       inkscape:locked="true"
       inkscape:label=""
       inkscape:color="rgb(0,134,229)" /></sodipodi:namedview><defs
     id="defs388"><inkscape:path-effect
       effect="mirror_symmetry"
       start_point="11.890009,4.1039562"
       end_point="11.890009,8.585547"
       center_point="11.890009,6.3447516"
       id="path-effect54059"
       is_visible="true"
       lpeversion="1.2"
       lpesatellites=""
       mode="vertical"
       discard_orig_path="false"
       fuse_paths="false"
       oposite_fuse="false"
       split_items="false"
       split_open="false"
       link_styles="false" /><inkscape:path-effect
       effect="mirror_symmetry"
       start_point="11.890009,6.3447516"
       end_point="11.890009,8.585547"
       center_point="11.890009,7.4651493"
       id="path-effect54019"
       is_visible="true"
       lpeversion="1.2"
       lpesatellites=""
       mode="horizontal"
       discard_orig_path="false"
       fuse_paths="false"
       oposite_fuse="false"
       split_items="false"
       split_open="false"
       link_styles="false" /><inkscape:path-effect
       effect="mirror_symmetry"
       start_point="9.7075054,8.7001112"
       end_point="9.7075054,11.660085"
       center_point="9.7075054,10.180098"
       id="path-effect34589"
       is_visible="true"
       lpeversion="1.2"
       lpesatellites=""
       mode="vertical"
       discard_orig_path="false"
       fuse_paths="false"
       oposite_fuse="false"
       split_items="false"
       split_open="false"
       link_styles="false" /><inkscape:path-effect
       effect="offset"
       id="path-effect6906"
       is_visible="true"
       lpeversion="1.2"
       linejoin_type="miter"
       unit="mm"
       offset="0.807799"
       miter_limit="4"
       attempt_force_join="false"
       update_on_knot_move="true" /><linearGradient
       id="linearGradient7376"
       inkscape:swatch="solid"><stop
         style="stop-color:#0088aa;stop-opacity:1;"
         offset="0"
         id="stop7374" /></linearGradient><linearGradient
       id="linearGradient7361"
       inkscape:swatch="solid"><stop
         style="stop-color:#0088aa;stop-opacity:1;"
         offset="0"
         id="stop7359" /></linearGradient><inkscape:path-effect
       effect="powerstroke"
       id="path-effect2108"
       is_visible="true"
       lpeversion="1"
       offset_points="0,4.9921384"
       not_jump="false"
       sort_points="true"
       interpolator_type="CubicBezierJohan"
       interpolator_beta="0.2"
       start_linecap_type="zerowidth"
       linejoin_type="extrp_arc"
       miter_limit="4"
       scale_width="1"
       end_linecap_type="zerowidth" /><inkscape:path-effect
       effect="spiro"
       id="path-effect2102"
       is_visible="true"
       lpeversion="1" /><inkscape:path-effect
       effect="bspline"
       id="path-effect2098"
       is_visible="true"
       lpeversion="1"
       weight="33.333333"
       steps="2"
       helper_size="0"
       apply_no_weight="true"
       apply_with_weight="true"
       only_selected="false" /><inkscape:path-effect
       effect="fill_between_many"
       method="bsplinespiro"
       linkedpaths="#path2106,0,1"
       id="path-effect2110" /></defs><g
     inkscape:groupmode="layer"
     id="layer3"
     inkscape:label="First Ghost Ring"
     style="display:inline"><path
       id="path1544"
       style="display:inline;fill:#253e59;fill-opacity:1;stroke:#680000;stroke-width:0.68;stroke-dasharray:none;stroke-opacity:0"
       inkscape:label="Outer_down"
       d="M 6.35,4.5842163 A 1.7656156,1.7656156 0 0 0 4.5842163,6.35 1.7656156,1.7656156 0 0 0 6.35,8.1157837 1.7656156,1.7656156 0 0 0 8.1157837,6.35 1.7656156,1.7656156 0 0 0 6.35,4.5842163 Z m 0,0.3829224 A 1.3829752,1.3829752 0 0 1 7.7328613,6.35 1.3829752,1.3829752 0 0 1 6.35,7.7328613 1.3829752,1.3829752 0 0 1 4.9671387,6.35 1.3829752,1.3829752 0 0 1 6.35,4.9671387 Z" /></g><g
     inkscape:groupmode="layer"
     id="layer6"
     inkscape:label="Second Ghost Ring"
     style="display:inline"><path
       id="path1811"
       style="fill:#253e59;fill-opacity:1;stroke-width:0.944077;stroke-dasharray:none"
       inkscape:label="Outer"
       d="M 6.35,2.0572388 A 4.292882,4.292882 0 0 0 2.0572388,6.35 4.292882,4.292882 0 0 0 6.35,10.642761 4.292882,4.292882 0 0 0 10.642761,6.35 4.292882,4.292882 0 0 0 6.35,2.0572388 Z m 0,1.1332641 A 3.1595099,3.1595099 0 0 1 9.5094971,6.35 3.1595099,3.1595099 0 0 1 6.35,9.5094971 3.1595099,3.1595099 0 0 1 3.1905029,6.35 3.1595099,3.1595099 0 0 1 6.35,3.1905029 Z" /></g><g
     inkscape:label="Center"
     inkscape:groupmode="layer"
     id="layer1"
     style="display:inline"><circle
       style="display:inline;fill:#0088aa;stroke-width:0.52271;stroke-dasharray:none"
       id="path682"
       cx="5.9392347"
       cy="6.7357621"
       transform="rotate(-3.5958752)"
       r="1.0545226"
       inkscape:label="Central circle"
       inkscape:export-filename="./path682.svg"
       inkscape:export-xdpi="96"
       inkscape:export-ydpi="96" /></g><g
     inkscape:groupmode="layer"
     id="layer4"
     inkscape:label="Main Body"
     style="display:inline"><path
       id="path1675"
       style="display:inline;fill:#0088aa;stroke-width:0.583127;stroke-dasharray:none"
       inkscape:label="Outer"
       d="M 6.35 3.5584391 A 2.7917624 2.7917624 0 0 0 3.5584391 6.35 A 2.7917624 2.7917624 0 0 0 6.1117716 9.1307088 L 6.1117716 8.3741659 A 2.039459 2.039459 0 0 1 4.3103312 6.35 A 2.039459 2.039459 0 0 1 6.35 4.3103312 A 2.039459 2.039459 0 0 1 8.3896688 6.35 A 2.039459 2.039459 0 0 1 6.5882284 8.3757161 L 6.5882284 9.1307088 A 2.7917624 2.7917624 0 0 0 9.1415609 6.35 A 2.7917624 2.7917624 0 0 0 6.35 3.5584391 z " /><path
       style="display:inline;fill:#0088aa;fill-opacity:1;stroke:none;stroke-width:0.01;stroke-dasharray:none;stroke-opacity:1;paint-order:normal"
       d="m 6.5881249,8.9693749 v 0.8995833 c 0,0 -0.00858,0.7870638 0.1790104,1.1385958 0.1115912,0.20911 0.5366787,0.688345 1.2511385,0.650403 0.3424563,-0.01819 0.8095191,-0.186075 1.0575646,-0.363919 0.06712,-0.04812 0.4112635,-0.310602 0.5715046,-0.618562 C 9.9003182,10.189295 9.2879131,9.8966034 9.0605865,10.21552 8.9001258,10.440631 8.6764828,10.710342 8.3379647,10.83476 7.9904617,10.962481 7.650064,10.869814 7.5265648,10.76727 7.2687647,10.553212 7.3513521,9.3418288 7.3436416,8.8855342 7.3359317,8.4292396 6.5881249,8.9693749 6.5881249,8.9693749 Z m -0.4762498,0 v 0.8995833 c 0,0 0.00858,0.7870638 -0.1790104,1.1385958 C 5.8212735,11.216664 5.396186,11.695899 4.6817262,11.657957 4.3392699,11.639767 3.8722071,11.471882 3.6241616,11.294038 3.5570416,11.245918 3.2128981,10.983436 3.052657,10.675476 2.7996818,10.189295 3.4120869,9.8966034 3.6394135,10.21552 c 0.1604607,0.225111 0.3841037,0.494822 0.7226218,0.61924 0.347503,0.127721 0.6879007,0.03505 0.8113999,-0.06749 0.2578001,-0.214058 0.1752127,-1.4254412 0.1829232,-1.8817358 0.00771,-0.4562946 0.7555167,0.083841 0.7555167,0.083841 z"
       id="path6910"
       sodipodi:nodetypes="ccssssssssc"
       inkscape:label="Leg"
       inkscape:original-d="m 6.5881249,8.9693749 v 0.8995833 c 0,0 -0.00858,0.7870638 0.1790104,1.1385958 0.1115912,0.20911 0.5366787,0.688345 1.2511385,0.650403 0.3424563,-0.01819 0.8095191,-0.186075 1.0575646,-0.363919 0.06712,-0.04812 0.4112635,-0.310602 0.5715046,-0.618562 C 9.9003182,10.189295 9.2879131,9.8966034 9.0605865,10.21552 8.9001258,10.440631 8.6764828,10.710342 8.3379647,10.83476 7.9904617,10.962481 7.650064,10.869814 7.5265648,10.76727 7.2687647,10.553212 7.3513521,9.3418288 7.3436416,8.8855342 7.3359317,8.4292396 6.5881249,8.9693749 6.5881249,8.9693749 Z"
       inkscape:path-effect="#path-effect34589"
       class="UnoptimicedTransforms" /></g><g
     inkscape:groupmode="layer"
     id="layer5"
     inkscape:label="Mini Circles"
     style="display:inline"><circle
       style="display:inline;fill:#0088aa;stroke-width:0.295802;stroke-dasharray:none"
       id="circle1700"
       cy="8.9958334"
       cx="1.8520833"
       r="0.38512951"
       inkscape:transform-center-x="-0.050454921"
       inkscape:transform-center-y="0.015142229"
       inkscape:label="left" /><circle
       style="fill:#0088aa;stroke-width:0.295802;stroke-dasharray:none"
       id="circle1698"
       cx="10.847917"
       cy="8.9958334"
       r="0.38512951"
       inkscape:label="right" /><circle
       style="fill:#0088aa;stroke-width:0.295802;stroke-dasharray:none"
       id="circle874"
       inkscape:label="top"
       class="UnoptimicedTransforms"
       r="0.38512951"
       cy="1.8520833"
       cx="6.3499999" /></g><metadata
     id="metadata609"><rdf:RDF><cc:Work
         rdf:about=""><dc:title>Copland OS logo</dc:title><dc:date>2023-04-25</dc:date><dc:creator><cc:Agent><dc:title>@hasecilu</dc:title></cc:Agent></dc:creator><dc:rights><cc:Agent><dc:title>?</dc:title></cc:Agent></dc:rights><dc:contributor><cc:Agent><dc:title>@hasecilu</dc:title></cc:Agent></dc:contributor><dc:publisher><cc:Agent><dc:title>@hasecilu</dc:title></cc:Agent></dc:publisher><dc:subject><rdf:Bag><rdf:li>CoplandOS</rdf:li><rdf:li>LainOS</rdf:li></rdf:Bag></dc:subject><dc:description>Copland OS logo, could be used to patch a font or use it as icon.</dc:description><cc:license
           rdf:resource="http://creativecommons.org/licenses/by-nc-sa/4.0/" /></cc:Work><cc:License
         rdf:about="http://creativecommons.org/licenses/by-nc-sa/4.0/"><cc:permits
           rdf:resource="http://creativecommons.org/ns#Reproduction" /><cc:permits
           rdf:resource="http://creativecommons.org/ns#Distribution" /><cc:requires
           rdf:resource="http://creativecommons.org/ns#Notice" /><cc:requires
           rdf:resource="http://creativecommons.org/ns#Attribution" /><cc:prohibits
           rdf:resource="http://creativecommons.org/ns#CommercialUse" /><cc:permits
           rdf:resource="http://creativecommons.org/ns#DerivativeWorks" /><cc:requires
           rdf:resource="http://creativecommons.org/ns#ShareAlike" /></cc:License></rdf:RDF></metadata><g
     inkscape:groupmode="layer"
     id="layer7"
     inkscape:label="Wings"
     style="display:inline"><path
       style="display:inline;fill:#0088aa;fill-opacity:1;stroke:none;stroke-width:0.01;stroke-dasharray:none;stroke-opacity:1;paint-order:normal"
       d="m 11.074903,6.3447516 h 0.815106 c 0,0 0.02817,0.4094394 -0.574435,0.9308429 C 10.841693,7.685617 10.403435,8.03893 10.006567,8.3271516 9.7217547,8.5339939 9.4806981,8.7215199 9.2813412,8.450962 9.0877914,8.1882852 9.2055703,8.0592062 9.5941532,7.8242646 9.8007492,7.6877723 10.4093,7.3029424 10.579457,7.1331949 c 0.06865,-0.068481 0.48807,-0.4161812 0.495446,-0.7884433 z m 0,0 h 0.815106 c 0,0 0.02817,-0.4094394 -0.574435,-0.9308429 C 10.841693,5.0038862 10.403435,4.6505732 10.006567,4.3623516 9.7217547,4.1555093 9.4806981,3.9679833 9.2813412,4.2385412 9.0877914,4.501218 9.2055703,4.630297 9.5941532,4.8652386 9.8007492,5.0017309 10.4093,5.3865608 10.579457,5.5563083 c 0.06865,0.068481 0.48807,0.4161812 0.495446,0.7884433 z m -9.429371,0 H 0.83042596 c 0,0 -0.02817,0.4094394 0.57443504,0.9308429 C 1.878742,7.685617 2.317,8.03893 2.713868,8.3271516 2.9986803,8.5339939 3.2397369,8.7215199 3.4390938,8.450962 3.6326436,8.1882852 3.5148647,8.0592062 3.1262818,7.8242646 2.9196858,7.6877723 2.311135,7.3029424 2.140978,7.1331949 2.072328,7.0647139 1.652908,6.7170137 1.645532,6.3447516 Z m 0,0 H 0.83042596 c 0,0 -0.02817,-0.4094394 0.57443504,-0.9308429 C 1.878742,5.0038862 2.317,4.6505732 2.713868,4.3623516 2.9986803,4.1555093 3.2397369,3.9679833 3.4390938,4.2385412 3.6326436,4.501218 3.5148647,4.630297 3.1262818,4.8652386 2.9196858,5.0017309 2.311135,5.3865608 2.140978,5.5563083 2.072328,5.6247893 1.652908,5.9724895 1.645532,6.3447516 Z"
       id="path8222"
       sodipodi:nodetypes="ccssscsc"
       inkscape:label="Quarter"
       class="UnoptimicedTransforms"
       transform="translate(-0.01021748,0.0052484)"
       inkscape:path-effect="#path-effect54019;#path-effect54059"
       inkscape:original-d="m 11.074903,6.3447516 h 0.815106 c 0,0 0.02817,0.4094394 -0.574435,0.9308429 C 10.841693,7.685617 10.403435,8.03893 10.006567,8.3271516 9.7217547,8.5339939 9.4806981,8.7215199 9.2813412,8.450962 9.0877914,8.1882852 9.2055703,8.0592062 9.5941532,7.8242646 9.8007492,7.6877723 10.4093,7.3029424 10.579457,7.1331949 c 0.06865,-0.068481 0.48807,-0.4161812 0.495446,-0.7884433 z" /></g></svg>
