<?xml version="1.0" encoding="UTF-8"?>
<svg width="42" height="42" version="1.1" viewBox="0 0 11.112 11.112" xmlns="http://www.w3.org/2000/svg">
 <title>Copland OS logo</title>
 <g transform="translate(-.79375 -.79375)" fill="#000000">
  <circle transform="rotate(-3.5959)" cx="5.9392" cy="6.7358" r="1.0545" stroke-width=".52271"/>
  <path d="m6.35 3.5584a2.7918 2.7918 0 0 0-2.7916 2.7916 2.7918 2.7918 0 0 0 2.5533 2.7807v-0.75654a2.0395 2.0395 0 0 1-1.8014-2.0242 2.0395 2.0395 0 0 1 2.0397-2.0397 2.0395 2.0395 0 0 1 2.0397 2.0397 2.0395 2.0395 0 0 1-1.8014 2.0257v0.75499a2.7918 2.7918 0 0 0 2.5533-2.7807 2.7918 2.7918 0 0 0-2.7916-2.7916z" stroke-width=".58313"/>
  <path class="UnoptimicedTransforms" d="m6.5881 8.9694v0.89958s-0.00858 0.78706 0.17901 1.1386c0.11159 0.20911 0.53668 0.68834 1.2511 0.6504 0.34246-0.01819 0.80952-0.18608 1.0576-0.36392 0.06712-0.04812 0.41126-0.3106 0.5715-0.61856 0.25298-0.48618-0.35943-0.77887-0.58676-0.45996-0.16046 0.22511-0.3841 0.49482-0.72262 0.61924-0.3475 0.12772-0.6879 0.035054-0.8114-0.06749-0.2578-0.21406-0.17521-1.4254-0.18292-1.8817-0.0077099-0.45629-0.75552 0.083841-0.75552 0.083841zm-0.47625 0v0.89958s0.00858 0.78706-0.17901 1.1386c-0.11159 0.20911-0.53668 0.68834-1.2511 0.6504-0.34246-0.01819-0.80952-0.18608-1.0576-0.36392-0.06712-0.04812-0.41126-0.3106-0.5715-0.61856-0.25298-0.48618 0.35943-0.77887 0.58676-0.45996 0.16046 0.22511 0.3841 0.49482 0.72262 0.61924 0.3475 0.12772 0.6879 0.03505 0.8114-0.06749 0.2578-0.21406 0.17521-1.4254 0.18292-1.8817 0.00771-0.45629 0.75552 0.083841 0.75552 0.083841z" style="paint-order:normal"/>
  <g stroke-width=".2958">
   <circle cx="1.8521" cy="8.9958" r=".38513"/>
   <circle cx="10.848" cy="8.9958" r=".38513"/>
   <circle class="UnoptimicedTransforms" cx="6.35" cy="1.8521" r=".38513"/>
  </g>
  <path class="UnoptimicedTransforms" transform="translate(-.010217 .0052484)" d="m11.075 6.3448h0.81511s0.02817 0.40944-0.57444 0.93084c-0.47388 0.41002-0.91214 0.76334-1.309 1.0516-0.28481 0.20684-0.52587 0.39437-0.72523 0.12381-0.19355-0.26268-0.075771-0.39176 0.31281-0.6267 0.2066-0.13649 0.81515-0.52132 0.9853-0.69107 0.06865-0.068481 0.48807-0.41618 0.49545-0.78844zm0 0h0.81511s0.02817-0.40944-0.57444-0.93084c-0.47388-0.41002-0.91214-0.76334-1.309-1.0516-0.28481-0.20684-0.52587-0.39437-0.72523-0.12381-0.19355 0.26268-0.075771 0.39176 0.31281 0.6267 0.2066 0.13649 0.81515 0.52132 0.9853 0.69107 0.06865 0.068481 0.48807 0.41618 0.49545 0.78844zm-9.4294 0h-0.81511s-0.02817 0.40944 0.57444 0.93084c0.47388 0.41002 0.91214 0.76334 1.309 1.0516 0.28481 0.20684 0.52587 0.39437 0.72523 0.12381 0.19355-0.26268 0.075771-0.39176-0.31281-0.6267-0.2066-0.13649-0.81515-0.52132-0.9853-0.69107-0.06865-0.068481-0.48807-0.41618-0.49545-0.78844zm0 0h-0.81511s-0.02817-0.40944 0.57444-0.93084c0.47388-0.41002 0.91214-0.76334 1.309-1.0516 0.28481-0.20684 0.52587-0.39437 0.72523-0.12381 0.19355 0.26268 0.075771 0.39176-0.31281 0.6267-0.2066 0.13649-0.81515 0.52132-0.9853 0.69107-0.06865 0.068481-0.48807 0.41618-0.49545 0.78844z" style="paint-order:normal"/>
 </g>
</svg>
